<svg xmlns="http://www.w3.org/2000/svg" width="2182" height="609">
  <path fill="#ed3237" d="M785.148 592.865c34.654-36.423 82.125-78.924 124.05-111.065 161.151-123.54 348.583-197.315 530.702-208.886 38.815-2.467 106.253-.22 154.6 5.15 227.57 25.274 413.302 121.276 551.82 285.226 13.12 15.529 35.68 44.041 35.68 45.094 0 .339-27.113.602-60.25.585l-60.25-.03-3.313-4.4c-9.36-12.428-52.834-53.926-78.187-74.633-95.946-78.363-210.627-128.944-343.102-151.329-73.338-12.392-153.387-16.122-216.283-10.077-105.182 10.108-213.2 44.045-314.495 97.536-64.6 34.113-126.466 76.179-183.12 125.088-7.425 6.41-14.99 13.054-16.812 14.765L902.877 609h-133.08l15.351-16.135zM345 228.962c-82.35-7.609-149.94-30.629-210.432-71.67C88.183 125.822 46.55 81.916 18.608 35 11.138 22.457 0 1.905 0 .664 0 .299 4.631 0 10.292 0h10.291l2.765 5.637c4.49 9.157 17.306 30.007 26.031 42.354 24.189 34.229 56.935 67.132 90.442 90.88 53.074 37.613 116.182 61.485 185.179 70.048 59.351 7.367 115.273 4.245 170.059-9.49 108.75-27.267 203.609-94.671 264.829-188.179L767.253 0h9.98c8.126 0 9.881.26 9.446 1.395-.295.767-3.554 6.28-7.242 12.25-34.564 55.94-86.548 108.398-142.646 143.945-59.52 37.715-122.01 60.097-194.136 69.534-13.29 1.74-22.54 2.167-52.155 2.415-19.8.165-40.275-.094-45.5-.577z"/>
</svg>
