<svg xmlns="http://www.w3.org/2000/svg" width="598" height="167" viewBox="0 0 598 167"><path d="M215.18 162.574c9.496-9.988 22.504-21.64 33.996-30.453 44.164-33.879 95.531-54.11 145.445-57.281 10.637-.68 29.117-.063 42.367 1.41 62.367 6.93 113.27 33.258 151.235 78.215 3.593 4.258 9.777 12.078 9.777 12.367 0 .094-7.43.164-16.512.16l-16.511-.008-.91-1.207c-2.563-3.41-14.477-14.789-21.426-20.464-26.297-21.493-57.727-35.36-94.032-41.5-20.097-3.399-42.039-4.422-59.273-2.762-28.828 2.77-58.43 12.078-86.191 26.746a270.074 270.074 0 00-50.188 34.3c-2.035 1.758-4.105 3.579-4.605 4.051l-.91.852h-36.47zM94.55 62.785C71.98 60.7 53.458 54.387 36.88 43.133 24.168 34.503 12.758 22.465 5.102 9.598 3.05 6.156 0 .523 0 .184 0 .082 1.27 0 2.82 0h2.82l.758 1.547c1.23 2.512 4.743 8.226 7.133 11.613 6.63 9.387 15.606 18.41 24.79 24.922 14.542 10.313 31.84 16.86 50.75 19.207 16.265 2.02 31.59 1.164 46.605-2.602 29.804-7.476 55.8-25.96 72.578-51.601L210.274 0h2.734c2.226 0 2.71.07 2.59.383-.082.21-.973 1.722-1.985 3.36-9.472 15.339-23.718 29.722-39.093 39.472-16.313 10.34-33.438 16.48-53.208 19.066-3.64.477-6.175.594-14.292.664-5.426.043-11.036-.027-12.47-.16zm0 0" fill="#ed3237"/></svg>